<svg xmlns="http://www.w3.org/2000/svg" xmlns:xlink="http://www.w3.org/1999/xlink" width="500" zoomAndPan="magnify" viewBox="0 0 375 374.999991" height="500" preserveAspectRatio="xMidYMid meet" version="1.0"><defs><clipPath id="id1"><path d="M 59 56.25 L 134 56.25 L 134 318.75 L 59 318.75 Z M 59 56.25 " clip-rule="nonzero"/></clipPath><clipPath id="id2"><path d="M 237 56.25 L 312 56.25 L 312 318.75 L 237 318.75 Z M 237 56.25 " clip-rule="nonzero"/></clipPath><clipPath id="id3"><path d="M 128.863281 112.5 L 245.863281 112.5 L 245.863281 262.5 L 128.863281 262.5 Z M 128.863281 112.5 " clip-rule="nonzero"/></clipPath></defs><g clip-path="url(#id1)"><path fill="current" d="M 110.164062 159.425781 C 159.53125 127.898438 106.496094 96.886719 102.496094 71.628906 C 89.125 99.378906 146.046875 127.820312 101.121094 154.453125 C 136.761719 117.335938 73.476562 93.539062 108 56.25 C 84.3125 60.289062 78.121094 90.015625 89.730469 108.230469 C 99.957031 124.277344 106.175781 142.980469 95.832031 155.011719 C 102.925781 122.664062 73.734375 113.339844 82.765625 84.300781 C 50.046875 116.433594 95.960938 139.546875 92.007812 154.066406 C 85.429688 138.859375 66.859375 140.578125 68.964844 110.378906 C 58.472656 124.726562 56.96875 150.714844 82.980469 159.425781 L 59.121094 159.425781 C 60.359375 164.273438 62.128906 168.917969 64.609375 173.292969 C 64.929688 173.863281 65.464844 174.285156 66.09375 174.46875 C 67.492188 174.871094 68.992188 174.957031 70.597656 174.695312 C 69.648438 178.695312 70.308594 181.878906 73.820312 183.847656 C 74.953125 184.480469 76.28125 184.628906 77.820312 184.296875 C 77.691406 185.304688 77.351562 185.988281 76.699219 186.199219 C 76.449219 186.285156 76.207031 186.402344 76.015625 186.585938 C 75.425781 187.152344 75.167969 187.84375 75.328125 188.640625 C 82.742188 225.496094 86.460938 261.269531 87.6875 293.777344 C 87.890625 299.199219 88.289062 303.195312 85.589844 307.277344 C 84.023438 309.648438 85.183594 310.53125 87.945312 310.046875 C 88.664062 315.664062 91.058594 318.75 96.070312 317.875 C 101.082031 318.75 103.476562 315.664062 104.195312 310.046875 C 106.953125 310.53125 108.117188 309.648438 106.546875 307.277344 C 103.851562 303.195312 104.25 299.199219 104.453125 293.777344 C 105.675781 261.269531 109.398438 225.496094 116.808594 188.640625 C 116.96875 187.839844 116.714844 187.152344 116.125 186.585938 C 115.933594 186.402344 115.691406 186.285156 115.4375 186.199219 C 114.785156 185.988281 114.445312 185.304688 114.320312 184.296875 C 115.855469 184.628906 117.1875 184.480469 118.316406 183.847656 C 121.832031 181.878906 122.492188 178.695312 121.542969 174.695312 C 123.148438 174.957031 124.648438 174.871094 126.046875 174.46875 C 126.675781 174.285156 127.207031 173.863281 127.53125 173.292969 C 130.011719 168.917969 131.78125 164.273438 133.019531 159.425781 Z M 110.164062 159.425781 " fill-opacity="1" fill-rule="nonzero"/></g><g clip-path="url(#id2)"><path fill="current" d="M 288.199219 159.425781 C 337.566406 127.898438 284.53125 96.886719 280.53125 71.628906 C 267.164062 99.378906 324.082031 127.820312 279.15625 154.453125 C 314.796875 117.335938 251.511719 93.539062 286.035156 56.25 C 262.347656 60.289062 256.15625 90.015625 267.765625 108.230469 C 277.992188 124.277344 284.210938 142.980469 273.867188 155.011719 C 280.960938 122.664062 251.773438 113.339844 260.800781 84.300781 C 228.082031 116.433594 273.996094 139.546875 270.042969 154.066406 C 263.464844 138.859375 244.894531 140.578125 247 110.378906 C 236.511719 124.726562 235.003906 150.714844 261.015625 159.425781 L 237.15625 159.425781 C 238.394531 164.273438 240.164062 168.917969 242.644531 173.292969 C 242.964844 173.863281 243.5 174.285156 244.128906 174.46875 C 245.527344 174.871094 247.027344 174.957031 248.632812 174.695312 C 247.683594 178.695312 248.34375 181.878906 251.859375 183.847656 C 252.988281 184.480469 254.316406 184.628906 255.855469 184.296875 C 255.730469 185.304688 255.386719 185.988281 254.734375 186.199219 C 254.484375 186.285156 254.242188 186.402344 254.050781 186.585938 C 253.460938 187.152344 253.203125 187.84375 253.367188 188.640625 C 260.777344 225.496094 264.496094 261.269531 265.722656 293.777344 C 265.925781 299.199219 266.324219 303.195312 263.625 307.277344 C 262.058594 309.648438 263.21875 310.53125 265.980469 310.046875 C 266.699219 315.664062 269.09375 318.75 274.105469 317.875 C 279.117188 318.75 281.511719 315.664062 282.230469 310.046875 C 284.992188 310.53125 286.152344 309.648438 284.585938 307.277344 C 281.886719 303.195312 282.285156 299.199219 282.488281 293.777344 C 283.710938 261.269531 287.433594 225.496094 294.84375 188.640625 C 295.003906 187.839844 294.75 187.152344 294.160156 186.585938 C 293.96875 186.402344 293.726562 186.285156 293.472656 186.199219 C 292.824219 185.988281 292.480469 185.304688 292.355469 184.296875 C 293.890625 184.628906 295.222656 184.480469 296.351562 183.847656 C 299.867188 181.878906 300.527344 178.695312 299.578125 174.695312 C 301.183594 174.957031 302.683594 174.871094 304.082031 174.46875 C 304.710938 174.285156 305.246094 173.863281 305.566406 173.292969 C 308.046875 168.917969 309.816406 164.273438 311.054688 159.425781 Z M 288.199219 159.425781 " fill-opacity="1" fill-rule="nonzero"/></g><path fill="current" d="M 171.691406 119.632812 C 163.710938 175.257812 138.394531 175.765625 135.617188 204.515625 C 132.828125 233.398438 162.617188 251.21875 167.523438 252.429688 C 167.523438 252.429688 153.53125 236.464844 154.847656 222.835938 C 155.757812 213.398438 159.695312 209.980469 167.128906 199.652344 C 172.46875 192.226562 178.5 182.039062 182.933594 166.996094 C 198.714844 180.625 205.484375 188.558594 208.636719 205.015625 C 211.789062 221.472656 198.769531 251.066406 198.769531 251.066406 C 245.859375 216.050781 233.796875 162.59375 171.691406 119.628906 Z M 171.691406 119.632812 " fill-opacity="1" fill-rule="evenodd"/><g clip-path="url(#id3)"><path stroke-linecap="square" transform="matrix(0.377054, 0, 0, 0.377923, 69.251323, 111.631934)" fill="current" stroke-linejoin="miter" d="M 271.685121 21.170654 C 250.519826 168.356701 183.377251 169.700393 176.011355 245.77408 C 168.61438 322.199195 247.619051 369.352477 260.631097 372.556668 C 260.631097 372.556668 223.521901 330.313032 227.013191 294.250384 C 229.42705 269.278369 239.869838 260.234282 259.584746 232.905637 C 273.746743 213.256714 289.742443 186.300168 301.500941 146.495852 C 343.354976 182.5585 361.308699 203.551117 369.669146 247.097101 C 378.029593 290.643085 343.500015 368.949369 343.500015 368.949369 C 468.388725 276.29658 436.397324 134.847068 271.685121 21.160318 Z M 271.685121 21.170654 " stroke="current" stroke-width="19.784" stroke-opacity="1" stroke-miterlimit="4"/></g></svg>