<svg xmlns="http://www.w3.org/2000/svg" xmlns:xlink="http://www.w3.org/1999/xlink" width="300" zoomAndPan="magnify" viewBox="0 0 224.87999 30.000001" height="40" preserveAspectRatio="xMidYMid meet" version="1.0"><defs><g/><clipPath id="id1"><path d="M 3.570312 0 L 221.195312 0 L 221.195312 29.03125 L 3.570312 29.03125 Z M 3.570312 0 " clip-rule="nonzero"/></clipPath></defs><g clip-path="url(#id1)"><path fill="none" d="M 3.570312 0 L 221.3125 0 L 221.3125 36.289062 L 3.570312 36.289062 Z M 3.570312 0 " fill-opacity="1" fill-rule="nonzero"/><path fill="none" d="M 3.570312 0 L 221.3125 0 L 221.3125 29.03125 L 3.570312 29.03125 Z M 3.570312 0 " fill-opacity="1" fill-rule="nonzero"/><path fill="none" d="M 3.570312 0 L 221.3125 0 L 221.3125 29.03125 L 3.570312 29.03125 Z M 3.570312 0 " fill-opacity="1" fill-rule="nonzero"/><path fill="none" d="M 3.570312 0 L 221.3125 0 L 221.3125 29.03125 L 3.570312 29.03125 Z M 3.570312 0 " fill-opacity="1" fill-rule="nonzero"/></g><g fill="current" fill-opacity="1"><g transform="translate(7.735074, 21.709541)"><g><path d="M 7.105469 -8.351562 L 7.9375 -10.253906 L 9.621094 -14.648438 C 9.183594 -14.890625 8.570312 -15.042969 7.71875 -15.285156 L 6.253906 -15.285156 C 3.324219 -15.285156 1.222656 -13.621094 1.222656 -11.28125 C 1.222656 -9.183594 2.886719 -7.9375 5.226562 -7.128906 C 7.304688 -6.273438 8.15625 -5.664062 8.15625 -4.199219 C 8.15625 -2.710938 6.910156 -1.660156 5.007812 -1.660156 C 3.519531 -1.660156 2.296875 -2.078125 1.441406 -2.515625 L 1.027344 -1.050781 C 1.878906 -0.414062 3.300781 0 4.789062 0 C 8.351562 0 10.234375 -2.054688 10.234375 -4.394531 C 10.234375 -6.253906 9.183594 -7.324219 7.105469 -8.351562 Z M 7.105469 -13.601562 L 5.421875 -9.007812 C 3.9375 -9.621094 3.324219 -10.472656 3.324219 -11.5 C 3.324219 -12.550781 4.175781 -13.796875 6.035156 -13.796875 C 6.472656 -13.796875 6.867188 -13.796875 7.105469 -13.601562 Z M 7.105469 -13.601562 "/></g></g></g><g fill="current" fill-opacity="1"><g transform="translate(18.902415, 21.709541)"><g><path d="M 12.636719 -15.304688 L 10.605469 -15.304688 L 10.539062 -15.085938 L 5.640625 -1.683594 C 4.351562 -2.363281 3.519531 -3.804688 3.519531 -6.363281 L 3.519531 -15.304688 L 1.398438 -15.304688 L 1.398438 -6.363281 C 1.398438 -1.707031 3.957031 0 6.929688 0 C 10.320312 0 12.636719 -1.925781 12.636719 -6.582031 Z M 10.757812 -9.96875 L 10.757812 -6.363281 C 10.757812 -3.390625 9.488281 -1.902344 7.761719 -1.507812 Z M 10.757812 -9.96875 "/></g></g></g><g fill="current" fill-opacity="1"><g transform="translate(32.932621, 21.709541)"><g><path d="M 20.507812 -0.0234375 L 14.78125 -15.328125 L 12.441406 -15.328125 L 10.515625 -10.648438 L 8.832031 -15.328125 L 6.492188 -15.328125 L 1.378906 -1.925781 L 0.742188 -0.0234375 Z M 3.082031 -1.726562 L 7.761719 -13.820312 L 9.03125 -10.015625 L 9.664062 -8.308594 L 7.324219 -1.925781 L 7.128906 -1.726562 Z M 17.949219 -1.726562 L 13.90625 -1.726562 L 11.371094 -8.308594 L 13.492188 -13.820312 L 14.976562 -10.015625 L 16.246094 -6.40625 L 17.515625 -3.191406 Z M 12.199219 -1.726562 L 8.832031 -1.726562 L 10.515625 -5.96875 L 11.566406 -3.191406 Z M 12.199219 -1.726562 "/></g></g></g><g fill="current" fill-opacity="1"><g transform="translate(54.15276, 21.709541)"><g><path d="M 20.507812 -0.0234375 L 14.78125 -15.328125 L 12.441406 -15.328125 L 10.515625 -10.648438 L 8.832031 -15.328125 L 6.492188 -15.328125 L 1.378906 -1.925781 L 0.742188 -0.0234375 Z M 3.082031 -1.726562 L 7.761719 -13.820312 L 9.03125 -10.015625 L 9.664062 -8.308594 L 7.324219 -1.925781 L 7.128906 -1.726562 Z M 17.949219 -1.726562 L 13.90625 -1.726562 L 11.371094 -8.308594 L 13.492188 -13.820312 L 14.976562 -10.015625 L 16.246094 -6.40625 L 17.515625 -3.191406 Z M 12.199219 -1.726562 L 8.832031 -1.726562 L 10.515625 -5.96875 L 11.566406 -3.191406 Z M 12.199219 -1.726562 "/></g></g></g><g fill="current" fill-opacity="1"><g transform="translate(75.372899, 21.709541)"><g><path d="M 8.660156 -15.347656 C 4.285156 -15.347656 0.960938 -11.785156 0.960938 -7.652344 C 0.960938 -3.519531 4.285156 0.0429688 8.660156 0.0429688 C 12.789062 0.0429688 16.15625 -3.519531 16.15625 -7.652344 C 16.15625 -11.785156 12.789062 -15.347656 8.660156 -15.347656 Z M 8.660156 -1.835938 C 5.335938 -1.835938 2.84375 -4.527344 2.84375 -7.652344 C 2.84375 -10.78125 5.335938 -13.46875 8.660156 -13.46875 C 11.785156 -13.46875 14.277344 -10.78125 14.277344 -7.652344 C 14.277344 -4.527344 11.785156 -1.835938 8.660156 -1.835938 Z M 8.660156 -9.335938 C 7.609375 -9.335938 6.976562 -8.503906 6.976562 -7.652344 C 6.976562 -6.800781 7.609375 -5.96875 8.660156 -5.96875 C 9.488281 -5.96875 10.34375 -6.820312 10.34375 -7.652344 C 10.34375 -8.484375 9.488281 -9.335938 8.660156 -9.335938 Z M 8.660156 -9.335938 "/></g></g></g><g fill="current" fill-opacity="1"><g transform="translate(92.484499, 21.709541)"><g><path d="M 11.761719 -15.238281 L 11.761719 -9.75 L 3.519531 -15.238281 L 1.617188 -15.238281 L 1.617188 -0.0234375 L 3.519531 -0.0234375 L 7.542969 -10.605469 L 11.761719 -7.628906 L 11.761719 -0.0234375 L 13.664062 -0.0234375 L 13.664062 -15.238281 Z M 3.519531 -5.3125 L 3.519531 -13.140625 L 5.839844 -11.652344 Z M 3.519531 -5.3125 "/></g></g></g><g fill="current" fill-opacity="1"><g transform="translate(107.782224, 21.709541)"><g><path d="M 5.511719 -1.707031 L 7.847656 -8.308594 L 12.308594 -8.308594 L 12.308594 -10.035156 L 7.238281 -10.035156 L 3.367188 -12.988281 L 3.367188 -13.554688 L 12.308594 -13.554688 L 12.308594 -15.304688 L 1.617188 -15.304688 L 1.617188 -11.980469 L 4.328125 -10.035156 L 1.617188 -10.035156 L 1.617188 0.0429688 L 12.507812 0.0429688 L 12.507812 -1.707031 Z M 5.902344 -8.308594 L 3.367188 -1.707031 L 3.367188 -8.308594 Z M 5.902344 -8.308594 "/></g></g></g><g fill="current" fill-opacity="1"><g transform="translate(120.960124, 21.709541)"><g><path d="M 1.617188 0.0234375 L 4.15625 0.0234375 L 6.101562 -5.074219 L 8.199219 0.0234375 L 10.34375 0.0234375 L 7.566406 -6.144531 C 8.660156 -6.363281 9.511719 -6.777344 10.101562 -7.414062 C 10.953125 -8.265625 11.390625 -9.3125 11.390625 -10.800781 C 11.390625 -14.015625 8.703125 -15.285156 5.445312 -15.285156 L 1.617188 -15.285156 Z M 3.761719 -7.414062 L 3.761719 -13.578125 L 7.148438 -13.578125 L 4.808594 -7.414062 Z M 9.6875 -10.605469 C 9.6875 -9.117188 8.660156 -8.046875 6.910156 -7.609375 L 8.855469 -12.726562 C 9.269531 -12.289062 9.6875 -11.457031 9.6875 -10.605469 Z M 3.761719 -4.21875 L 3.761719 -5.707031 L 4.15625 -5.707031 Z M 3.761719 -4.21875 "/></g></g></g><g fill="current" fill-opacity="1"><g transform="translate(133.220166, 21.709541)"><g><path d="M 9.269531 -2.164062 L 3.585938 -9.597656 L 3.585938 -15.285156 L 1.617188 -15.285156 L 1.617188 0.0234375 L 13.03125 0.0234375 L 13.03125 -2.164062 Z M 3.585938 -5.882812 L 6.429688 -2.164062 L 3.585938 -2.164062 Z M 3.585938 -5.882812 "/></g></g></g><g fill="current" fill-opacity="1"><g transform="translate(146.245093, 21.709541)"><g><path d="M 8.660156 -15.347656 C 4.285156 -15.347656 0.960938 -11.785156 0.960938 -7.652344 C 0.960938 -3.519531 4.285156 0.0429688 8.660156 0.0429688 C 12.789062 0.0429688 16.15625 -3.519531 16.15625 -7.652344 C 16.15625 -11.785156 12.789062 -15.347656 8.660156 -15.347656 Z M 8.660156 -1.835938 C 5.335938 -1.835938 2.84375 -4.527344 2.84375 -7.652344 C 2.84375 -10.78125 5.335938 -13.46875 8.660156 -13.46875 C 11.785156 -13.46875 14.277344 -10.78125 14.277344 -7.652344 C 14.277344 -4.527344 11.785156 -1.835938 8.660156 -1.835938 Z M 8.660156 -9.335938 C 7.609375 -9.335938 6.976562 -8.503906 6.976562 -7.652344 C 6.976562 -6.800781 7.609375 -5.96875 8.660156 -5.96875 C 9.488281 -5.96875 10.34375 -6.820312 10.34375 -7.652344 C 10.34375 -8.484375 9.488281 -9.335938 8.660156 -9.335938 Z M 8.660156 -9.335938 "/></g></g></g><g fill="current" fill-opacity="1"><g transform="translate(163.356692, 21.709541)"><g><path d="M 8.660156 -15.347656 C 4.285156 -15.347656 0.960938 -11.785156 0.960938 -7.652344 C 0.960938 -3.519531 4.285156 0.0429688 8.660156 0.0429688 C 12.789062 0.0429688 16.15625 -3.519531 16.15625 -7.652344 C 16.15625 -11.785156 12.789062 -15.347656 8.660156 -15.347656 Z M 8.660156 -1.835938 C 5.335938 -1.835938 2.84375 -4.527344 2.84375 -7.652344 C 2.84375 -10.78125 5.335938 -13.46875 8.660156 -13.46875 C 11.785156 -13.46875 14.277344 -10.78125 14.277344 -7.652344 C 14.277344 -4.527344 11.785156 -1.835938 8.660156 -1.835938 Z M 8.660156 -9.335938 C 7.609375 -9.335938 6.976562 -8.503906 6.976562 -7.652344 C 6.976562 -6.800781 7.609375 -5.96875 8.660156 -5.96875 C 9.488281 -5.96875 10.34375 -6.820312 10.34375 -7.652344 C 10.34375 -8.484375 9.488281 -9.335938 8.660156 -9.335938 Z M 8.660156 -9.335938 "/></g></g></g><g fill="current" fill-opacity="1"><g transform="translate(180.468292, 21.709541)"><g><path d="M 9.292969 -15.371094 L 6.976562 -15.371094 L 3.609375 -5.730469 L 3.609375 -15.371094 L 1.617188 -15.371094 L 1.617188 -0.0234375 L 3.609375 -0.0234375 L 5.707031 -6.253906 L 7.980469 -0.0234375 L 10.167969 -0.0234375 L 6.886719 -9.007812 Z M 9.292969 -15.371094 "/></g></g></g><g fill="current" fill-opacity="1"><g transform="translate(191.570068, 21.709541)"><g><path d="M 12.636719 -15.304688 L 10.605469 -15.304688 L 10.539062 -15.085938 L 5.640625 -1.683594 C 4.351562 -2.363281 3.519531 -3.804688 3.519531 -6.363281 L 3.519531 -15.304688 L 1.398438 -15.304688 L 1.398438 -6.363281 C 1.398438 -1.707031 3.957031 0 6.929688 0 C 10.320312 0 12.636719 -1.925781 12.636719 -6.582031 Z M 10.757812 -9.96875 L 10.757812 -6.363281 C 10.757812 -3.390625 9.488281 -1.902344 7.761719 -1.507812 Z M 10.757812 -9.96875 "/></g></g></g><g fill="current" fill-opacity="1"><g transform="translate(205.600263, 21.709541)"><g><path d="M 1.617188 0.0429688 L 4.15625 0.0429688 L 6.296875 -5.902344 C 8.023438 -6.144531 9.25 -6.539062 10.101562 -7.390625 C 10.953125 -8.242188 11.390625 -9.292969 11.390625 -10.78125 C 11.390625 -14.015625 8.703125 -15.238281 5.445312 -15.238281 L 1.617188 -15.238281 Z M 3.738281 -7.390625 L 3.738281 -13.554688 L 7.148438 -13.554688 L 4.789062 -7.390625 Z M 9.6875 -10.5625 C 9.6875 -9.074219 8.660156 -8.023438 6.929688 -7.609375 L 8.832031 -12.703125 C 9.269531 -12.289062 9.6875 -11.414062 9.6875 -10.5625 Z M 3.738281 -4.21875 L 3.738281 -5.707031 L 4.15625 -5.707031 Z M 3.738281 -4.21875 "/></g></g></g></svg>