<svg xmlns="http://www.w3.org/2000/svg" xmlns:xlink="http://www.w3.org/1999/xlink" width="340" zoomAndPan="magnify" viewBox="0 0 255 30.000001" height="45" preserveAspectRatio="xMidYMid meet" version="1.0"><defs><g/></defs><path fill="current" d="M 20.5625 11.519531 C 25.722656 8.226562 20.179688 4.984375 19.761719 2.34375 C 18.363281 5.242188 24.3125 8.214844 19.617188 11 C 23.34375 7.121094 16.726562 4.632812 20.335938 0.734375 C 17.859375 1.160156 17.214844 4.265625 18.425781 6.167969 C 19.496094 7.847656 20.144531 9.800781 19.0625 11.058594 C 19.804688 7.675781 16.753906 6.703125 17.699219 3.667969 C 14.277344 7.027344 19.078125 9.441406 18.664062 10.960938 C 17.976562 9.371094 16.035156 9.550781 16.257812 6.394531 C 15.160156 7.894531 15.003906 10.609375 17.722656 11.519531 L 15.226562 11.519531 C 15.355469 12.027344 15.542969 12.511719 15.800781 12.96875 C 15.835938 13.027344 15.890625 13.074219 15.957031 13.09375 C 16.101562 13.132812 16.257812 13.144531 16.425781 13.117188 C 16.328125 13.535156 16.398438 13.867188 16.765625 14.074219 C 16.882812 14.136719 17.019531 14.152344 17.183594 14.121094 C 17.167969 14.222656 17.132812 14.296875 17.066406 14.316406 C 17.039062 14.328125 17.011719 14.339844 16.992188 14.359375 C 16.929688 14.417969 16.90625 14.488281 16.921875 14.574219 C 17.695312 18.425781 18.085938 22.164062 18.214844 25.5625 C 18.234375 26.128906 18.277344 26.546875 17.992188 26.972656 C 17.832031 27.21875 17.953125 27.3125 18.238281 27.261719 C 18.316406 27.847656 18.566406 28.171875 19.089844 28.082031 C 19.613281 28.171875 19.863281 27.847656 19.9375 27.261719 C 20.226562 27.3125 20.347656 27.21875 20.183594 26.972656 C 19.902344 26.546875 19.945312 26.128906 19.964844 25.5625 C 20.09375 22.164062 20.480469 18.425781 21.257812 14.574219 C 21.273438 14.488281 21.246094 14.417969 21.183594 14.359375 C 21.164062 14.339844 21.140625 14.328125 21.113281 14.316406 C 21.046875 14.296875 21.007812 14.222656 20.996094 14.121094 C 21.15625 14.152344 21.296875 14.136719 21.414062 14.074219 C 21.78125 13.867188 21.851562 13.535156 21.75 13.117188 C 21.917969 13.144531 22.074219 13.132812 22.222656 13.09375 C 22.289062 13.074219 22.34375 13.027344 22.378906 12.96875 C 22.636719 12.511719 22.820312 12.027344 22.949219 11.519531 Z M 20.5625 11.519531 " fill-opacity="1" fill-rule="nonzero"/><path fill="current" d="M 39.167969 11.519531 C 44.328125 8.226562 38.785156 4.984375 38.367188 2.34375 C 36.972656 5.242188 42.921875 8.214844 38.226562 11 C 41.949219 7.121094 35.335938 4.632812 38.945312 0.734375 C 36.46875 1.160156 35.820312 4.265625 37.035156 6.167969 C 38.101562 7.847656 38.753906 9.800781 37.671875 11.058594 C 38.414062 7.675781 35.363281 6.703125 36.304688 3.667969 C 32.886719 7.027344 37.683594 9.441406 37.273438 10.960938 C 36.585938 9.371094 34.644531 9.550781 34.863281 6.394531 C 33.769531 7.894531 33.609375 10.609375 36.328125 11.519531 L 33.835938 11.519531 C 33.964844 12.027344 34.148438 12.511719 34.410156 12.96875 C 34.441406 13.027344 34.5 13.074219 34.5625 13.09375 C 34.710938 13.132812 34.867188 13.144531 35.035156 13.117188 C 34.933594 13.535156 35.003906 13.867188 35.371094 14.074219 C 35.488281 14.136719 35.628906 14.152344 35.789062 14.121094 C 35.777344 14.222656 35.742188 14.296875 35.671875 14.316406 C 35.644531 14.328125 35.621094 14.339844 35.601562 14.359375 C 35.539062 14.417969 35.511719 14.488281 35.53125 14.574219 C 36.304688 18.425781 36.691406 22.164062 36.820312 25.5625 C 36.84375 26.128906 36.882812 26.546875 36.601562 26.972656 C 36.4375 27.21875 36.558594 27.3125 36.847656 27.261719 C 36.921875 27.847656 37.171875 28.171875 37.695312 28.082031 C 38.21875 28.171875 38.472656 27.847656 38.546875 27.261719 C 38.835938 27.3125 38.957031 27.21875 38.792969 26.972656 C 38.511719 26.546875 38.550781 26.128906 38.574219 25.5625 C 38.699219 22.164062 39.089844 18.425781 39.863281 14.574219 C 39.882812 14.488281 39.855469 14.417969 39.792969 14.359375 C 39.773438 14.339844 39.746094 14.328125 39.722656 14.316406 C 39.652344 14.296875 39.617188 14.222656 39.605469 14.121094 C 39.765625 14.152344 39.902344 14.136719 40.023438 14.074219 C 40.390625 13.867188 40.457031 13.535156 40.359375 13.117188 C 40.527344 13.144531 40.683594 13.132812 40.828125 13.09375 C 40.894531 13.074219 40.953125 13.027344 40.984375 12.96875 C 41.246094 12.511719 41.429688 12.027344 41.558594 11.519531 Z M 39.167969 11.519531 " fill-opacity="1" fill-rule="nonzero"/><path fill="current" d="M 26.992188 7.359375 C 26.160156 13.175781 23.511719 13.226562 23.222656 16.234375 C 22.929688 19.25 26.042969 21.113281 26.558594 21.242188 C 26.558594 21.242188 25.09375 19.570312 25.234375 18.148438 C 25.328125 17.160156 25.738281 16.804688 26.515625 15.722656 C 27.074219 14.949219 27.703125 13.882812 28.167969 12.3125 C 29.816406 13.734375 30.523438 14.566406 30.855469 16.285156 C 31.183594 18.003906 29.824219 21.097656 29.824219 21.097656 C 34.746094 17.4375 33.484375 11.851562 26.992188 7.359375 Z M 26.992188 7.359375 " fill-opacity="1" fill-rule="evenodd"/><path fill="current" d="M 26.992188 7.359375 C 26.160156 13.175781 23.511719 13.226562 23.222656 16.230469 C 22.929688 19.25 26.042969 21.113281 26.558594 21.238281 C 26.558594 21.238281 25.09375 19.570312 25.230469 18.148438 C 25.328125 17.160156 25.738281 16.804688 26.515625 15.722656 C 27.074219 14.949219 27.703125 13.882812 28.167969 12.3125 C 29.816406 13.734375 30.523438 14.566406 30.855469 16.285156 C 31.183594 18.003906 29.824219 21.097656 29.824219 21.097656 C 34.746094 17.4375 33.484375 11.851562 26.992188 7.359375 Z M 26.992188 7.359375 " fill-opacity="1" fill-rule="nonzero"/><g fill="current" fill-opacity="1"><g transform="translate(46.333546, 22.190862)"><g><path d="M 6.640625 -7.804688 L 7.414062 -9.582031 L 8.988281 -13.6875 C 8.578125 -13.910156 8.007812 -14.054688 7.210938 -14.277344 L 5.84375 -14.277344 C 3.105469 -14.277344 1.144531 -12.726562 1.144531 -10.539062 C 1.144531 -8.578125 2.695312 -7.414062 4.882812 -6.660156 C 6.824219 -5.863281 7.621094 -5.289062 7.621094 -3.921875 C 7.621094 -2.53125 6.457031 -1.550781 4.679688 -1.550781 C 3.289062 -1.550781 2.144531 -1.941406 1.347656 -2.347656 L 0.960938 -0.980469 C 1.757812 -0.386719 3.085938 0 4.472656 0 C 7.804688 0 9.558594 -1.921875 9.558594 -4.105469 C 9.558594 -5.84375 8.578125 -6.84375 6.640625 -7.804688 Z M 6.640625 -12.707031 L 5.066406 -8.417969 C 3.675781 -8.988281 3.105469 -9.785156 3.105469 -10.746094 C 3.105469 -11.726562 3.902344 -12.890625 5.636719 -12.890625 C 6.046875 -12.890625 6.414062 -12.890625 6.640625 -12.707031 Z M 6.640625 -12.707031 "/></g></g></g><g fill="current" fill-opacity="1"><g transform="translate(56.766862, 22.190862)"><g><path d="M 11.808594 -14.300781 L 9.90625 -14.300781 L 9.847656 -14.09375 L 5.269531 -1.574219 C 4.066406 -2.207031 3.289062 -3.554688 3.289062 -5.945312 L 3.289062 -14.300781 L 1.308594 -14.300781 L 1.308594 -5.945312 C 1.308594 -1.59375 3.699219 0 6.476562 0 C 9.640625 0 11.808594 -1.796875 11.808594 -6.148438 Z M 10.050781 -9.316406 L 10.050781 -5.945312 C 10.050781 -3.167969 8.867188 -1.777344 7.25 -1.410156 Z M 10.050781 -9.316406 "/></g></g></g><g fill="current" fill-opacity="1"><g transform="translate(69.874866, 22.190862)"><g><path d="M 19.160156 -0.0195312 L 13.808594 -14.320312 L 11.625 -14.320312 L 9.824219 -9.949219 L 8.253906 -14.320312 L 6.066406 -14.320312 L 1.285156 -1.796875 L 0.695312 -0.0195312 Z M 2.878906 -1.613281 L 7.25 -12.910156 L 8.4375 -9.355469 L 9.027344 -7.761719 L 6.84375 -1.796875 L 6.660156 -1.613281 Z M 16.769531 -1.613281 L 12.992188 -1.613281 L 10.621094 -7.761719 L 12.605469 -12.910156 L 13.992188 -9.355469 L 15.179688 -5.984375 L 16.363281 -2.984375 Z M 11.398438 -1.613281 L 8.253906 -1.613281 L 9.824219 -5.578125 L 10.804688 -2.984375 Z M 11.398438 -1.613281 "/></g></g></g><g fill="current" fill-opacity="1"><g transform="translate(89.700211, 22.190862)"><g><path d="M 19.160156 -0.0195312 L 13.808594 -14.320312 L 11.625 -14.320312 L 9.824219 -9.949219 L 8.253906 -14.320312 L 6.066406 -14.320312 L 1.285156 -1.796875 L 0.695312 -0.0195312 Z M 2.878906 -1.613281 L 7.25 -12.910156 L 8.4375 -9.355469 L 9.027344 -7.761719 L 6.84375 -1.796875 L 6.660156 -1.613281 Z M 16.769531 -1.613281 L 12.992188 -1.613281 L 10.621094 -7.761719 L 12.605469 -12.910156 L 13.992188 -9.355469 L 15.179688 -5.984375 L 16.363281 -2.984375 Z M 11.398438 -1.613281 L 8.253906 -1.613281 L 9.824219 -5.578125 L 10.804688 -2.984375 Z M 11.398438 -1.613281 "/></g></g></g><g fill="current" fill-opacity="1"><g transform="translate(109.525556, 22.190862)"><g><path d="M 8.089844 -14.339844 C 4.003906 -14.339844 0.898438 -11.011719 0.898438 -7.148438 C 0.898438 -3.289062 4.003906 0.0390625 8.089844 0.0390625 C 11.949219 0.0390625 15.097656 -3.289062 15.097656 -7.148438 C 15.097656 -11.011719 11.949219 -14.339844 8.089844 -14.339844 Z M 8.089844 -1.714844 C 4.984375 -1.714844 2.65625 -4.230469 2.65625 -7.148438 C 2.65625 -10.070312 4.984375 -12.582031 8.089844 -12.582031 C 11.011719 -12.582031 13.339844 -10.070312 13.339844 -7.148438 C 13.339844 -4.230469 11.011719 -1.714844 8.089844 -1.714844 Z M 8.089844 -8.722656 C 7.109375 -8.722656 6.515625 -7.945312 6.515625 -7.148438 C 6.515625 -6.351562 7.109375 -5.578125 8.089844 -5.578125 C 8.867188 -5.578125 9.664062 -6.375 9.664062 -7.148438 C 9.664062 -7.925781 8.867188 -8.722656 8.089844 -8.722656 Z M 8.089844 -8.722656 "/></g></g></g><g fill="current" fill-opacity="1"><g transform="translate(125.512415, 22.190862)"><g><path d="M 10.988281 -14.238281 L 10.988281 -9.109375 L 3.289062 -14.238281 L 1.511719 -14.238281 L 1.511719 -0.0195312 L 3.289062 -0.0195312 L 7.046875 -9.90625 L 10.988281 -7.128906 L 10.988281 -0.0195312 L 12.765625 -0.0195312 L 12.765625 -14.238281 Z M 3.289062 -4.964844 L 3.289062 -12.277344 L 5.453125 -10.886719 Z M 3.289062 -4.964844 "/></g></g></g><g fill="current" fill-opacity="1"><g transform="translate(139.804625, 22.190862)"><g><path d="M 5.148438 -1.59375 L 7.332031 -7.761719 L 11.5 -7.761719 L 11.5 -9.375 L 6.761719 -9.375 L 3.144531 -12.132812 L 3.144531 -12.664062 L 11.5 -12.664062 L 11.5 -14.300781 L 1.511719 -14.300781 L 1.511719 -11.195312 L 4.042969 -9.375 L 1.511719 -9.375 L 1.511719 0.0390625 L 11.683594 0.0390625 L 11.683594 -1.59375 Z M 5.515625 -7.761719 L 3.144531 -1.59375 L 3.144531 -7.761719 Z M 5.515625 -7.761719 "/></g></g></g><g fill="current" fill-opacity="1"><g transform="translate(152.116346, 22.190862)"><g><path d="M 1.511719 0.0195312 L 3.882812 0.0195312 L 5.699219 -4.738281 L 7.660156 0.0195312 L 9.664062 0.0195312 L 7.066406 -5.738281 C 8.089844 -5.945312 8.886719 -6.332031 9.4375 -6.925781 C 10.234375 -7.722656 10.644531 -8.703125 10.644531 -10.089844 C 10.644531 -13.09375 8.128906 -14.277344 5.085938 -14.277344 L 1.511719 -14.277344 Z M 3.511719 -6.925781 L 3.511719 -12.6875 L 6.679688 -12.6875 L 4.492188 -6.925781 Z M 9.050781 -9.90625 C 9.050781 -8.519531 8.089844 -7.515625 6.457031 -7.109375 L 8.273438 -11.890625 C 8.660156 -11.480469 9.050781 -10.703125 9.050781 -9.90625 Z M 3.511719 -3.941406 L 3.511719 -5.332031 L 3.882812 -5.332031 Z M 3.511719 -3.941406 "/></g></g></g><g fill="current" fill-opacity="1"><g transform="translate(163.570538, 22.190862)"><g><path d="M 8.660156 -2.023438 L 3.351562 -8.96875 L 3.351562 -14.277344 L 1.511719 -14.277344 L 1.511719 0.0195312 L 12.175781 0.0195312 L 12.175781 -2.023438 Z M 3.351562 -5.496094 L 6.003906 -2.023438 L 3.351562 -2.023438 Z M 3.351562 -5.496094 "/></g></g></g><g fill="current" fill-opacity="1"><g transform="translate(175.73934, 22.190862)"><g><path d="M 8.089844 -14.339844 C 4.003906 -14.339844 0.898438 -11.011719 0.898438 -7.148438 C 0.898438 -3.289062 4.003906 0.0390625 8.089844 0.0390625 C 11.949219 0.0390625 15.097656 -3.289062 15.097656 -7.148438 C 15.097656 -11.011719 11.949219 -14.339844 8.089844 -14.339844 Z M 8.089844 -1.714844 C 4.984375 -1.714844 2.65625 -4.230469 2.65625 -7.148438 C 2.65625 -10.070312 4.984375 -12.582031 8.089844 -12.582031 C 11.011719 -12.582031 13.339844 -10.070312 13.339844 -7.148438 C 13.339844 -4.230469 11.011719 -1.714844 8.089844 -1.714844 Z M 8.089844 -8.722656 C 7.109375 -8.722656 6.515625 -7.945312 6.515625 -7.148438 C 6.515625 -6.351562 7.109375 -5.578125 8.089844 -5.578125 C 8.867188 -5.578125 9.664062 -6.375 9.664062 -7.148438 C 9.664062 -7.925781 8.867188 -8.722656 8.089844 -8.722656 Z M 8.089844 -8.722656 "/></g></g></g><g fill="current" fill-opacity="1"><g transform="translate(191.726199, 22.190862)"><g><path d="M 8.089844 -14.339844 C 4.003906 -14.339844 0.898438 -11.011719 0.898438 -7.148438 C 0.898438 -3.289062 4.003906 0.0390625 8.089844 0.0390625 C 11.949219 0.0390625 15.097656 -3.289062 15.097656 -7.148438 C 15.097656 -11.011719 11.949219 -14.339844 8.089844 -14.339844 Z M 8.089844 -1.714844 C 4.984375 -1.714844 2.65625 -4.230469 2.65625 -7.148438 C 2.65625 -10.070312 4.984375 -12.582031 8.089844 -12.582031 C 11.011719 -12.582031 13.339844 -10.070312 13.339844 -7.148438 C 13.339844 -4.230469 11.011719 -1.714844 8.089844 -1.714844 Z M 8.089844 -8.722656 C 7.109375 -8.722656 6.515625 -7.945312 6.515625 -7.148438 C 6.515625 -6.351562 7.109375 -5.578125 8.089844 -5.578125 C 8.867188 -5.578125 9.664062 -6.375 9.664062 -7.148438 C 9.664062 -7.925781 8.867188 -8.722656 8.089844 -8.722656 Z M 8.089844 -8.722656 "/></g></g></g><g fill="current" fill-opacity="1"><g transform="translate(207.713058, 22.190862)"><g><path d="M 8.683594 -14.359375 L 6.515625 -14.359375 L 3.371094 -5.351562 L 3.371094 -14.359375 L 1.511719 -14.359375 L 1.511719 -0.0195312 L 3.371094 -0.0195312 L 5.332031 -5.84375 L 7.457031 -0.0195312 L 9.5 -0.0195312 L 6.433594 -8.417969 Z M 8.683594 -14.359375 "/></g></g></g><g fill="current" fill-opacity="1"><g transform="translate(218.085117, 22.190862)"><g><path d="M 11.808594 -14.300781 L 9.90625 -14.300781 L 9.847656 -14.09375 L 5.269531 -1.574219 C 4.066406 -2.207031 3.289062 -3.554688 3.289062 -5.945312 L 3.289062 -14.300781 L 1.308594 -14.300781 L 1.308594 -5.945312 C 1.308594 -1.59375 3.699219 0 6.476562 0 C 9.640625 0 11.808594 -1.796875 11.808594 -6.148438 Z M 10.050781 -9.316406 L 10.050781 -5.945312 C 10.050781 -3.167969 8.867188 -1.777344 7.25 -1.410156 Z M 10.050781 -9.316406 "/></g></g></g><g fill="current" fill-opacity="1"><g transform="translate(231.193111, 22.190862)"><g><path d="M 1.511719 0.0390625 L 3.882812 0.0390625 L 5.882812 -5.515625 C 7.496094 -5.738281 8.640625 -6.109375 9.4375 -6.90625 C 10.234375 -7.703125 10.644531 -8.683594 10.644531 -10.070312 C 10.644531 -13.09375 8.128906 -14.238281 5.085938 -14.238281 L 1.511719 -14.238281 Z M 3.492188 -6.90625 L 3.492188 -12.664062 L 6.679688 -12.664062 L 4.472656 -6.90625 Z M 9.050781 -9.867188 C 9.050781 -8.476562 8.089844 -7.496094 6.476562 -7.109375 L 8.253906 -11.867188 C 8.660156 -11.480469 9.050781 -10.664062 9.050781 -9.867188 Z M 3.492188 -3.941406 L 3.492188 -5.332031 L 3.882812 -5.332031 Z M 3.492188 -3.941406 "/></g></g></g></svg>